<svg width="539" height="513" viewBox="0 0 539 513" fill="none" xmlns="http://www.w3.org/2000/svg">
<path d="M14.1246 426.351V432.063C14.1246 450.297 22.403 457.097 33.2162 457.097C46.6504 457.097 51.7631 448.506 51.7631 432.375C51.7631 414.664 46.3969 408.16 31.965 398.366C14.2918 386.421 6.39628 377.177 6.39628 358.959C6.39628 341.992 13.3048 326.546 34.009 326.546C56.3472 326.546 60.8235 343.049 60.8235 358.738V365.765H50.4202V359.196C50.4202 345.449 46.8985 336.076 33.4805 336.076C21.9176 336.076 17.0854 343.88 17.0854 357.843C17.0854 371.546 21.1248 377.468 35.9936 387.726C51.9195 398.679 62.463 407.918 62.463 430.445C62.463 453.586 53.408 466.627 32.4018 466.627C9.95573 466.627 3.42468 450.539 3.42468 432.586V426.346H14.1246V426.351Z" fill="#1C1C1C"/>
<path d="M84.3972 328.713C95.178 383.324 105.678 436.004 107.027 449.934H107.307C110.284 429.505 123.147 368.385 131.031 328.713H141.721L111.843 472.569C104.222 509.01 95.6742 512.5 81.5281 512.5C79.3007 512.5 76.0163 511.96 74.3445 511.416L74.3552 501.055C76.2213 501.589 79.5057 502.129 81.4364 502.129C92.7727 502.129 96.8499 496.493 101.952 469.09L73.1256 328.713H84.3972Z" fill="#1C1C1C"/>
<path d="M163.297 426.352V432.063C163.297 450.297 171.576 457.098 182.389 457.098C195.823 457.098 200.936 448.507 200.936 432.376C200.936 414.665 195.57 408.161 181.138 398.367C163.465 386.421 155.569 377.177 155.569 358.959C155.569 341.993 162.478 326.547 183.182 326.547C205.52 326.547 209.996 343.05 209.996 358.738V365.766H199.593V359.197C199.593 345.45 196.071 336.076 182.653 336.076C171.09 336.076 166.258 343.88 166.258 357.843C166.258 371.547 170.298 377.469 185.166 387.726C201.092 398.68 211.636 407.918 211.636 430.445C211.636 453.587 202.581 466.627 181.575 466.627C159.129 466.627 152.598 450.54 152.598 432.586V426.346H163.297V426.352Z" fill="#1C1C1C"/>
<path d="M219.63 328.717H236.408V294.546H246.569V328.717H267.915V338.273H246.569V440.926C246.569 448.498 248.181 456.846 257.123 456.846C259.836 456.846 264.425 456.571 266.841 456.032V464.715C263.287 465.831 258.094 466.106 254.001 466.106C244.865 466.106 236.408 460.675 236.408 442.894V338.268H219.63V328.717Z" fill="#1C1C1C"/>
<path d="M288.375 397.013V421.611C288.375 438.303 291.347 457.092 308.033 457.092C323.139 457.092 326.618 445.734 326.618 429.323V427.721H337.027V429.059C337.027 446.365 332.712 466.633 307.521 466.633C285.776 466.633 277.967 451.025 277.967 423.337V366.337C277.967 343.627 286.59 326.547 308.314 326.547C331.526 326.547 337.307 345.827 337.307 366.601C337.307 373.413 337.307 389.409 337.307 397.013H288.375ZM326.904 387.516V367.297C326.904 354.542 325.777 336.076 308.044 336.076C290.862 336.076 288.381 351.339 288.381 367.561V387.516H326.904Z" fill="#1C1C1C"/>
<path d="M359.298 367.549C359.298 345.448 359.298 335.751 359.023 328.713H368.892C369.442 332.52 369.442 337.897 369.448 342.25C372.737 333.022 379.554 326.545 392.012 326.545C401.817 326.545 409.68 330.369 412.404 343.328C415.958 334.138 423.023 326.545 436.344 326.545C448.084 326.545 460.564 330.957 460.564 356.768V464.463H450.139V359.529C450.139 347.643 448.489 336.641 434.785 336.641C418.643 336.641 415.143 352.2 415.143 368.158V464.463H404.713V361.142C404.713 344.143 400.916 336.646 388.825 336.646C373.482 336.646 369.717 352.739 369.717 370.812V464.468H359.292V367.549H359.298Z" fill="#1C1C1C"/>
<path d="M490.185 426.351V432.063C490.185 450.297 498.464 457.097 509.277 457.097C522.711 457.097 527.824 448.506 527.824 432.375C527.824 414.664 522.458 408.16 508.026 398.366C490.352 386.421 482.457 377.177 482.457 358.959C482.457 341.992 489.365 326.546 510.07 326.546C532.408 326.546 536.884 343.049 536.884 358.738V365.765H526.481V359.196C526.481 345.449 522.959 336.076 509.541 336.076C497.978 336.076 493.146 343.88 493.146 357.843C493.146 371.546 497.185 377.468 512.054 387.726C527.98 398.679 538.524 407.918 538.524 430.445C538.524 453.586 529.469 466.627 508.462 466.627C486.016 466.627 479.485 450.539 479.485 432.586V426.346H490.185V426.351Z" fill="#1C1C1C"/>
<path d="M26.3237 264.429V51.1638C19.1078 52.1885 5.90006 52.442 0 52.2802V21.038C16.7672 19.4524 30.018 11.3034 37.4497 2.41016H67.6511V264.423H26.3237V264.429Z" fill="#1C1C1C"/>
<path d="M124.995 264.428V259.499C125.346 210.06 144.81 178.068 171.322 140.516C192.884 110.244 200.429 100.699 200.429 71.7699C200.429 45.5109 197.495 34.9727 182.448 34.9727C169.17 34.9727 163.966 44.9015 163.966 65.5301V79.1369H125.869V64.3706C125.869 34.3256 135.609 0.5 184.309 0.5C229.023 0.5 241.848 28.2529 241.848 69.2513C241.848 110.773 228.43 128.344 206.658 157.671C188.23 182.517 173.102 208.011 171.096 228.898H246.853L241.265 264.428H124.995Z" fill="#1C1C1C"/>
<path d="M291.005 264.428V259.499C291.355 210.06 310.819 178.068 337.337 140.516C358.898 110.244 366.438 100.699 366.438 71.7699C366.438 45.5109 363.504 34.9727 348.457 34.9727C335.18 34.9727 329.975 44.9015 329.975 65.5301V79.1369H291.878V64.3706C291.884 34.3256 301.624 0.5 350.323 0.5C395.043 0.5 407.862 28.2529 407.862 69.2513C407.862 110.773 394.444 128.344 372.672 157.671C354.244 182.517 339.116 208.011 337.11 228.898H412.867L407.28 264.428H291.005Z" fill="#1C1C1C"/>
<path d="M481.623 264.429V51.1638C474.407 52.1885 461.199 52.442 455.299 52.2802V21.038C472.066 19.4524 485.317 11.3034 492.749 2.41016H522.95V264.423H481.623V264.429Z" fill="#1C1C1C"/>
</svg>
